<svg xmlns="http://www.w3.org/2000/svg" width="175" height="175" viewBox="0 0 175 175">
  <g id="i-md" transform="translate(-506 -366)">
    <circle id="Elipse_32" data-name="Elipse 32" cx="87.5" cy="87.5" r="87.5" transform="translate(506 366)" fill="#f56600"/>
    <g id="icon-md" transform="translate(462.469 329.376)">
      <g id="Grupo_2" data-name="Grupo 2" transform="translate(70.532 99.924)">
        <path id="Trazado_19" data-name="Trazado 19" d="M138.828,147.93H125.176V114.185a4.582,4.582,0,0,0-1.32-3.264,4.145,4.145,0,0,0-3.1-1.394h-9.25v38.4H97.852v-38.4h-9.2a4.21,4.21,0,0,0-3.142,1.37,4.56,4.56,0,0,0-1.322,3.288V147.93H70.532V113.849a13.666,13.666,0,0,1,4.008-9.723,12.423,12.423,0,0,1,9.243-4.2h41.842a12.365,12.365,0,0,1,9.243,4.178,13.707,13.707,0,0,1,3.96,9.744Z" transform="translate(-70.532 -99.924)" fill="#fff"/>
      </g>
      <path id="Trazado_20" data-name="Trazado 20" d="M155.188,104.15a12.406,12.406,0,0,0-9.31-4.224H113.643v48h32.281a12.372,12.372,0,0,0,9.286-4.2,13.774,13.774,0,0,0,3.962-9.768V113.94a13.839,13.839,0,0,0-3.984-9.79Zm-9.67,29.472a4.683,4.683,0,0,1-1.322,3.288,4.107,4.107,0,0,1-3.1,1.418H127.3v-28.8h13.8a4.138,4.138,0,0,1,3.1,1.394,4.6,4.6,0,0,1,1.322,3.264Z" transform="translate(31.36 0.003)" fill="#fff"/>
    </g>
  </g>
</svg>
